# Blender v2.80 (sub 75) OBJ File: 'buildingblocks.blend'
# www.blender.org
mtllib ramp_01.mtl
o ramp_Cube.001
v 0.500000 0.000000 -0.500000
v 0.500000 0.000000 0.500000
v -0.500000 1.000000 -0.500000
v -0.500000 0.000000 -0.500000
v -0.500000 1.000000 0.500000
v -0.500000 0.000000 0.500000
vt 0.250411 0.000042
vt 0.500167 0.000042
vt 0.500167 0.249426
vt 0.250411 0.249426
vt 0.500307 0.750119
vt 0.749331 1.000119
vt 0.499331 1.000119
vt -0.001510 0.500422
vt 0.248490 0.500422
vt 0.248490 0.750422
vt -0.001510 0.750422
vt 0.248490 0.750422
vt 0.248490 1.000422
vt -0.001510 1.000422
vt 0.500008 0.250465
vt 0.750008 0.250465
vt 0.500008 0.500465
vn 0.7071 0.7071 0.0000
vn 0.0000 0.0000 1.0000
vn -1.0000 0.0000 0.0000
vn 0.0000 -1.0000 0.0000
vn 0.0000 0.0000 -1.0000
usemtl Material
s off
f 1/1/1 3/2/1 5/3/1 2/4/1
f 2/5/2 5/6/2 6/7/2
f 6/8/3 5/9/3 3/10/3 4/11/3
f 4/11/4 1/12/4 2/13/4 6/14/4
f 4/15/5 3/16/5 1/17/5
