# Blender v2.80 (sub 75) OBJ File: 'buildingblocks.blend'
# www.blender.org
mtllib triangle.mtl
o Plane.001
v 0.500000 0.000000 0.500000
v 0.500000 0.000000 -0.500000
v -0.500000 1.000000 -0.500000
v -0.500000 0.000000 0.500000
v -0.500000 0.000000 -0.500000
vt 0.500870 0.000177
vt 0.750360 0.000177
vt 0.750360 0.249668
vt 0.500870 0.249668
vt 0.500232 -0.001364
vt 0.750589 0.250186
vt 0.500589 0.250186
vt 0.749881 0.000127
vt 0.999789 0.000357
vt 0.749881 0.250127
vt 0.000000 0.000620
vt 0.250000 0.250620
vt 0.000000 0.250620
vt 0.500008 0.000207
vt 0.750008 0.000207
vt 0.500008 0.250207
vn -0.0000 1.0000 0.0000
vn 0.0000 -1.0000 -0.0000
vn -1.0000 0.0000 0.0000
vn 0.0000 0.0000 -1.0000
vn 0.5774 0.5774 0.5774
usemtl Material
s off
f 4/1/1 1/2/1 2/3/1 5/4/1
f 2/5/2 4/6/2 5/7/2
f 5/8/3 4/9/3 3/10/3
f 3/11/4 2/12/4 5/13/4
f 3/14/5 4/15/5 2/16/5
